<?xml version="1.0" encoding="UTF-8" standalone="no"?>
<!DOCTYPE svg PUBLIC "-//W3C//DTD SVG 1.1//EN"
 "http://www.w3.org/Graphics/SVG/1.1/DTD/svg11.dtd">
<!-- Generated by graphviz version 2.40.1 (20161225.0304)
 -->
<!-- Title: %3 Pages: 1 -->
<svg width="1423pt" height="432pt"
 viewBox="0.00 0.00 1423.49 432.00" xmlns="http://www.w3.org/2000/svg" xmlns:xlink="http://www.w3.org/1999/xlink">
<g id="graph0" class="graph" transform="scale(1 1) rotate(0) translate(4 428)">
<title>%3</title>
<polygon fill="#ffffff" stroke="transparent" points="-4,4 -4,-428 1419.4917,-428 1419.4917,4 -4,4"/>
<!-- cryptography -->
<g id="node1" class="node">
<title>cryptography</title>
<path fill="none" stroke="#000000" d="M476.0936,-424C476.0936,-424 406.5617,-424 406.5617,-424 400.5617,-424 394.5617,-418 394.5617,-412 394.5617,-412 394.5617,-400 394.5617,-400 394.5617,-394 400.5617,-388 406.5617,-388 406.5617,-388 476.0936,-388 476.0936,-388 482.0936,-388 488.0936,-394 488.0936,-400 488.0936,-400 488.0936,-412 488.0936,-412 488.0936,-418 482.0936,-424 476.0936,-424"/>
<text text-anchor="middle" x="441.3276" y="-401.8" font-family="Times,serif" font-size="14.00" fill="#000000">Cryptography</text>
</g>
<!-- complexity -->
<g id="node2" class="node">
<title>complexity</title>
<path fill="none" stroke="#000000" d="M549.8389,-352C549.8389,-352 332.8164,-352 332.8164,-352 326.8164,-352 320.8164,-346 320.8164,-340 320.8164,-340 320.8164,-328 320.8164,-328 320.8164,-322 326.8164,-316 332.8164,-316 332.8164,-316 549.8389,-316 549.8389,-316 555.8389,-316 561.8389,-322 561.8389,-328 561.8389,-328 561.8389,-340 561.8389,-340 561.8389,-346 555.8389,-352 549.8389,-352"/>
<text text-anchor="middle" x="441.3276" y="-329.8" font-family="Times,serif" font-size="14.00" fill="#000000">Manipulating computational complexity</text>
</g>
<!-- cryptography&#45;&gt;complexity -->
<g id="edge1" class="edge">
<title>cryptography&#45;&gt;complexity</title>
<path fill="none" stroke="#000000" d="M441.3276,-387.8314C441.3276,-380.131 441.3276,-370.9743 441.3276,-362.4166"/>
<polygon fill="#000000" stroke="#000000" points="444.8277,-362.4132 441.3276,-352.4133 437.8277,-362.4133 444.8277,-362.4132"/>
</g>
<!-- why -->
<g id="node3" class="node">
<title>why</title>
<path fill="none" stroke="#000000" d="M174.3276,-280C174.3276,-280 144.3276,-280 144.3276,-280 138.3276,-280 132.3276,-274 132.3276,-268 132.3276,-268 132.3276,-256 132.3276,-256 132.3276,-250 138.3276,-244 144.3276,-244 144.3276,-244 174.3276,-244 174.3276,-244 180.3276,-244 186.3276,-250 186.3276,-256 186.3276,-256 186.3276,-268 186.3276,-268 186.3276,-274 180.3276,-280 174.3276,-280"/>
<text text-anchor="middle" x="159.3276" y="-257.8" font-family="Times,serif" font-size="14.00" fill="#000000">Why?</text>
</g>
<!-- complexity&#45;&gt;why -->
<g id="edge2" class="edge">
<title>complexity&#45;&gt;why</title>
<path fill="none" stroke="#000000" d="M370.5311,-315.9243C315.1327,-301.78 240.3228,-282.6796 196.2132,-271.4176"/>
<polygon fill="#000000" stroke="#000000" points="197.043,-268.0172 186.488,-268.9346 195.3113,-274.7997 197.043,-268.0172"/>
</g>
<!-- popular_methods -->
<g id="node4" class="node">
<title>popular_methods</title>
<path fill="none" stroke="#000000" d="M484.8219,-280C484.8219,-280 397.8334,-280 397.8334,-280 391.8334,-280 385.8334,-274 385.8334,-268 385.8334,-268 385.8334,-256 385.8334,-256 385.8334,-250 391.8334,-244 397.8334,-244 397.8334,-244 484.8219,-244 484.8219,-244 490.8219,-244 496.8219,-250 496.8219,-256 496.8219,-256 496.8219,-268 496.8219,-268 496.8219,-274 490.8219,-280 484.8219,-280"/>
<text text-anchor="middle" x="441.3276" y="-257.8" font-family="Times,serif" font-size="14.00" fill="#000000">Popular methods</text>
</g>
<!-- complexity&#45;&gt;popular_methods -->
<g id="edge3" class="edge">
<title>complexity&#45;&gt;popular_methods</title>
<path fill="none" stroke="#000000" d="M441.3276,-315.8314C441.3276,-308.131 441.3276,-298.9743 441.3276,-290.4166"/>
<polygon fill="#000000" stroke="#000000" points="444.8277,-290.4132 441.3276,-280.4133 437.8277,-290.4133 444.8277,-290.4132"/>
</g>
<!-- data_structures -->
<g id="node5" class="node">
<title>data_structures</title>
<path fill="none" stroke="#000000" d="M970.5215,-280C970.5215,-280 892.1338,-280 892.1338,-280 886.1338,-280 880.1338,-274 880.1338,-268 880.1338,-268 880.1338,-256 880.1338,-256 880.1338,-250 886.1338,-244 892.1338,-244 892.1338,-244 970.5215,-244 970.5215,-244 976.5215,-244 982.5215,-250 982.5215,-256 982.5215,-256 982.5215,-268 982.5215,-268 982.5215,-274 976.5215,-280 970.5215,-280"/>
<text text-anchor="middle" x="931.3276" y="-257.8" font-family="Times,serif" font-size="14.00" fill="#000000">Data Structures</text>
</g>
<!-- complexity&#45;&gt;data_structures -->
<g id="edge4" class="edge">
<title>complexity&#45;&gt;data_structures</title>
<path fill="none" stroke="#000000" d="M562.1369,-316.2484C659.7724,-301.902 793.1813,-282.299 870.0085,-271.0102"/>
<polygon fill="#000000" stroke="#000000" points="870.6212,-274.4578 880.0061,-269.5411 869.6035,-267.5322 870.6212,-274.4578"/>
</g>
<!-- security -->
<g id="node6" class="node">
<title>security</title>
<path fill="none" stroke="#000000" d="M50.4839,-194C50.4839,-194 12.1714,-194 12.1714,-194 6.1714,-194 .1714,-188 .1714,-182 .1714,-182 .1714,-170 .1714,-170 .1714,-164 6.1714,-158 12.1714,-158 12.1714,-158 50.4839,-158 50.4839,-158 56.4839,-158 62.4839,-164 62.4839,-170 62.4839,-170 62.4839,-182 62.4839,-182 62.4839,-188 56.4839,-194 50.4839,-194"/>
<text text-anchor="middle" x="31.3276" y="-171.8" font-family="Times,serif" font-size="14.00" fill="#000000">Security</text>
</g>
<!-- why&#45;&gt;security -->
<g id="edge5" class="edge">
<title>why&#45;&gt;security</title>
<path fill="none" stroke="#000000" d="M132.1954,-246.1831C114.7859,-235.7856 91.8649,-221.6291 72.3276,-208 68.8285,-205.559 65.2243,-202.929 61.6731,-200.2628"/>
<polygon fill="#000000" stroke="#000000" points="63.6248,-197.3491 53.5573,-194.0483 59.369,-202.9068 63.6248,-197.3491"/>
</g>
<!-- privacy -->
<g id="node7" class="node">
<title>privacy</title>
<path fill="none" stroke="#000000" d="M127.5937,-194C127.5937,-194 93.0615,-194 93.0615,-194 87.0615,-194 81.0615,-188 81.0615,-182 81.0615,-182 81.0615,-170 81.0615,-170 81.0615,-164 87.0615,-158 93.0615,-158 93.0615,-158 127.5937,-158 127.5937,-158 133.5937,-158 139.5937,-164 139.5937,-170 139.5937,-170 139.5937,-182 139.5937,-182 139.5937,-188 133.5937,-194 127.5937,-194"/>
<text text-anchor="middle" x="110.3276" y="-171.8" font-family="Times,serif" font-size="14.00" fill="#000000">Privacy</text>
</g>
<!-- why&#45;&gt;privacy -->
<g id="edge6" class="edge">
<title>why&#45;&gt;privacy</title>
<path fill="none" stroke="#000000" d="M148.936,-243.7616C142.1797,-231.9036 133.2519,-216.2345 125.6835,-202.951"/>
<polygon fill="#000000" stroke="#000000" points="128.6959,-201.1681 120.7043,-194.2121 122.6138,-204.6334 128.6959,-201.1681"/>
</g>
<!-- obfuscation -->
<g id="node8" class="node">
<title>obfuscation</title>
<path fill="none" stroke="#000000" d="M245.3071,-201C245.3071,-201 169.3481,-201 169.3481,-201 163.3481,-201 157.3481,-195 157.3481,-189 157.3481,-189 157.3481,-163 157.3481,-163 157.3481,-157 163.3481,-151 169.3481,-151 169.3481,-151 245.3071,-151 245.3071,-151 251.3071,-151 257.3071,-157 257.3071,-163 257.3071,-163 257.3071,-189 257.3071,-189 257.3071,-195 251.3071,-201 245.3071,-201"/>
<text text-anchor="middle" x="207.3276" y="-185.8" font-family="Times,serif" font-size="14.00" fill="#000000">Obfuscation</text>
<text text-anchor="middle" x="207.3276" y="-171.8" font-family="Times,serif" font-size="14.00" fill="#000000">a.k.a</text>
<text text-anchor="middle" x="207.3276" y="-157.8" font-family="Times,serif" font-size="14.00" fill="#000000">Steganography</text>
</g>
<!-- why&#45;&gt;obfuscation -->
<g id="edge7" class="edge">
<title>why&#45;&gt;obfuscation</title>
<path fill="none" stroke="#000000" d="M169.5072,-243.7616C174.9793,-233.9575 181.9054,-221.5481 188.3308,-210.0359"/>
<polygon fill="#000000" stroke="#000000" points="191.5217,-211.5003 193.3392,-201.0626 185.4093,-208.0887 191.5217,-211.5003"/>
</g>
<!-- hashing -->
<g id="node9" class="node">
<title>hashing</title>
<path fill="none" stroke="#000000" d="M325.4907,-194C325.4907,-194 287.1646,-194 287.1646,-194 281.1646,-194 275.1646,-188 275.1646,-182 275.1646,-182 275.1646,-170 275.1646,-170 275.1646,-164 281.1646,-158 287.1646,-158 287.1646,-158 325.4907,-158 325.4907,-158 331.4907,-158 337.4907,-164 337.4907,-170 337.4907,-170 337.4907,-182 337.4907,-182 337.4907,-188 331.4907,-194 325.4907,-194"/>
<text text-anchor="middle" x="306.3276" y="-171.8" font-family="Times,serif" font-size="14.00" fill="#000000">Hashing</text>
</g>
<!-- popular_methods&#45;&gt;hashing -->
<g id="edge8" class="edge">
<title>popular_methods&#45;&gt;hashing</title>
<path fill="none" stroke="#000000" d="M406.2366,-243.779C387.9583,-233.8614 365.4847,-220.9885 346.3276,-208 342.8496,-205.6419 339.2928,-203.0642 335.8048,-200.4282"/>
<polygon fill="#000000" stroke="#000000" points="337.9024,-197.6256 327.8604,-194.2478 333.6042,-203.1506 337.9024,-197.6256"/>
</g>
<!-- encryption -->
<g id="node10" class="node">
<title>encryption</title>
<path fill="none" stroke="#000000" d="M421.5349,-194C421.5349,-194 367.1203,-194 367.1203,-194 361.1203,-194 355.1203,-188 355.1203,-182 355.1203,-182 355.1203,-170 355.1203,-170 355.1203,-164 361.1203,-158 367.1203,-158 367.1203,-158 421.5349,-158 421.5349,-158 427.5349,-158 433.5349,-164 433.5349,-170 433.5349,-170 433.5349,-182 433.5349,-182 433.5349,-188 427.5349,-194 421.5349,-194"/>
<text text-anchor="middle" x="394.3276" y="-171.8" font-family="Times,serif" font-size="14.00" fill="#000000">Encryption</text>
</g>
<!-- popular_methods&#45;&gt;encryption -->
<g id="edge9" class="edge">
<title>popular_methods&#45;&gt;encryption</title>
<path fill="none" stroke="#000000" d="M431.3601,-243.7616C424.9419,-232.0176 416.4807,-216.5355 409.2665,-203.3349"/>
<polygon fill="#000000" stroke="#000000" points="412.1478,-201.3087 404.2808,-194.2121 406.0052,-204.6657 412.1478,-201.3087"/>
</g>
<!-- time_locks -->
<g id="node11" class="node">
<title>time_locks</title>
<path fill="none" stroke="#000000" d="M513.44,-194C513.44,-194 463.2153,-194 463.2153,-194 457.2153,-194 451.2153,-188 451.2153,-182 451.2153,-182 451.2153,-170 451.2153,-170 451.2153,-164 457.2153,-158 463.2153,-158 463.2153,-158 513.44,-158 513.44,-158 519.44,-158 525.44,-164 525.44,-170 525.44,-170 525.44,-182 525.44,-182 525.44,-188 519.44,-194 513.44,-194"/>
<text text-anchor="middle" x="488.3276" y="-171.8" font-family="Times,serif" font-size="14.00" fill="#000000">Timelocks</text>
</g>
<!-- popular_methods&#45;&gt;time_locks -->
<g id="edge10" class="edge">
<title>popular_methods&#45;&gt;time_locks</title>
<path fill="none" stroke="#000000" d="M451.2951,-243.7616C457.7134,-232.0176 466.1745,-216.5355 473.3888,-203.3349"/>
<polygon fill="#000000" stroke="#000000" points="476.6501,-204.6657 478.3745,-194.2121 470.5075,-201.3087 476.6501,-204.6657"/>
</g>
<!-- signing -->
<g id="node12" class="node">
<title>signing</title>
<path fill="none" stroke="#000000" d="M694.3907,-208C694.3907,-208 556.2645,-208 556.2645,-208 550.2645,-208 544.2645,-202 544.2645,-196 544.2645,-196 544.2645,-156 544.2645,-156 544.2645,-150 550.2645,-144 556.2645,-144 556.2645,-144 694.3907,-144 694.3907,-144 700.3907,-144 706.3907,-150 706.3907,-156 706.3907,-156 706.3907,-196 706.3907,-196 706.3907,-202 700.3907,-208 694.3907,-208"/>
<text text-anchor="middle" x="625.3276" y="-192.8" font-family="Times,serif" font-size="14.00" fill="#000000">Signing transactions</text>
<text text-anchor="middle" x="625.3276" y="-178.8" font-family="Times,serif" font-size="14.00" fill="#000000">to prove that you were the</text>
<text text-anchor="middle" x="625.3276" y="-164.8" font-family="Times,serif" font-size="14.00" fill="#000000">author or involved in a</text>
<text text-anchor="middle" x="625.3276" y="-150.8" font-family="Times,serif" font-size="14.00" fill="#000000">particular action</text>
</g>
<!-- popular_methods&#45;&gt;signing -->
<g id="edge11" class="edge">
<title>popular_methods&#45;&gt;signing</title>
<path fill="none" stroke="#000000" d="M479.9001,-243.9716C499.5296,-234.7969 524.1251,-223.3012 547.475,-212.3876"/>
<polygon fill="#000000" stroke="#000000" points="549.1159,-215.4842 556.6933,-208.0791 546.1519,-209.1426 549.1159,-215.4842"/>
</g>
<!-- merkle -->
<g id="node17" class="node">
<title>merkle</title>
<path fill="none" stroke="#000000" d="M908.0455,-194C908.0455,-194 736.6097,-194 736.6097,-194 730.6097,-194 724.6097,-188 724.6097,-182 724.6097,-182 724.6097,-170 724.6097,-170 724.6097,-164 730.6097,-158 736.6097,-158 736.6097,-158 908.0455,-158 908.0455,-158 914.0455,-158 920.0455,-164 920.0455,-170 920.0455,-170 920.0455,-182 920.0455,-182 920.0455,-188 914.0455,-194 908.0455,-194"/>
<text text-anchor="middle" x="822.3276" y="-171.8" font-family="Times,serif" font-size="14.00" fill="#000000">Merkle trees,... anything merkle</text>
</g>
<!-- data_structures&#45;&gt;merkle -->
<g id="edge16" class="edge">
<title>data_structures&#45;&gt;merkle</title>
<path fill="none" stroke="#000000" d="M908.4777,-243.9716C892.4907,-231.358 870.9432,-214.3573 853.3975,-200.5139"/>
<polygon fill="#000000" stroke="#000000" points="855.1662,-197.4511 845.1475,-194.0047 850.8303,-202.9466 855.1662,-197.4511"/>
</g>
<!-- dag -->
<g id="node18" class="node">
<title>dag</title>
<path fill="none" stroke="#000000" d="M1131.032,-194C1131.032,-194 949.6233,-194 949.6233,-194 943.6233,-194 937.6233,-188 937.6233,-182 937.6233,-182 937.6233,-170 937.6233,-170 937.6233,-164 943.6233,-158 949.6233,-158 949.6233,-158 1131.032,-158 1131.032,-158 1137.032,-158 1143.032,-164 1143.032,-170 1143.032,-170 1143.032,-182 1143.032,-182 1143.032,-188 1137.032,-194 1131.032,-194"/>
<text text-anchor="middle" x="1040.3276" y="-171.8" font-family="Times,serif" font-size="14.00" fill="#000000">DAG aka Directed Acyclic Graph</text>
</g>
<!-- data_structures&#45;&gt;dag -->
<g id="edge17" class="edge">
<title>data_structures&#45;&gt;dag</title>
<path fill="none" stroke="#000000" d="M954.1776,-243.9716C970.1646,-231.358 991.712,-214.3573 1009.2578,-200.5139"/>
<polygon fill="#000000" stroke="#000000" points="1011.825,-202.9466 1017.5077,-194.0047 1007.4891,-197.4511 1011.825,-202.9466"/>
</g>
<!-- blockchain -->
<g id="node19" class="node">
<title>blockchain</title>
<path fill="none" stroke="#000000" d="M1403.656,-194C1403.656,-194 1172.9993,-194 1172.9993,-194 1166.9993,-194 1160.9993,-188 1160.9993,-182 1160.9993,-182 1160.9993,-170 1160.9993,-170 1160.9993,-164 1166.9993,-158 1172.9993,-158 1172.9993,-158 1403.656,-158 1403.656,-158 1409.656,-158 1415.656,-164 1415.656,-170 1415.656,-170 1415.656,-182 1415.656,-182 1415.656,-188 1409.656,-194 1403.656,-194"/>
<text text-anchor="middle" x="1288.3276" y="-171.8" font-family="Times,serif" font-size="14.00" fill="#000000">Blockchain: linked blocks forming a chain</text>
</g>
<!-- data_structures&#45;&gt;blockchain -->
<g id="edge18" class="edge">
<title>data_structures&#45;&gt;blockchain</title>
<path fill="none" stroke="#000000" d="M982.8572,-249.5867C1040.5547,-235.6876 1134.9482,-212.9485 1203.5547,-196.4215"/>
<polygon fill="#000000" stroke="#000000" points="1204.5802,-199.7747 1213.4824,-194.03 1202.9408,-192.9693 1204.5802,-199.7747"/>
</g>
<!-- symetric -->
<g id="node13" class="node">
<title>symetric</title>
<path fill="none" stroke="#000000" d="M371.3741,-108C371.3741,-108 329.2812,-108 329.2812,-108 323.2812,-108 317.2812,-102 317.2812,-96 317.2812,-96 317.2812,-84 317.2812,-84 317.2812,-78 323.2812,-72 329.2812,-72 329.2812,-72 371.3741,-72 371.3741,-72 377.3741,-72 383.3741,-78 383.3741,-84 383.3741,-84 383.3741,-96 383.3741,-96 383.3741,-102 377.3741,-108 371.3741,-108"/>
<text text-anchor="middle" x="350.3276" y="-85.8" font-family="Times,serif" font-size="14.00" fill="#000000">Symetric</text>
</g>
<!-- encryption&#45;&gt;symetric -->
<g id="edge12" class="edge">
<title>encryption&#45;&gt;symetric</title>
<path fill="none" stroke="#000000" d="M384.9964,-157.7616C378.9878,-146.0176 371.0667,-130.5355 364.3129,-117.3349"/>
<polygon fill="#000000" stroke="#000000" points="367.3161,-115.5204 359.6455,-108.2121 361.0844,-118.7088 367.3161,-115.5204"/>
</g>
<!-- asymetric -->
<g id="node14" class="node">
<title>asymetric</title>
<path fill="none" stroke="#000000" d="M463.6457,-108C463.6457,-108 413.0096,-108 413.0096,-108 407.0096,-108 401.0096,-102 401.0096,-96 401.0096,-96 401.0096,-84 401.0096,-84 401.0096,-78 407.0096,-72 413.0096,-72 413.0096,-72 463.6457,-72 463.6457,-72 469.6457,-72 475.6457,-78 475.6457,-84 475.6457,-84 475.6457,-96 475.6457,-96 475.6457,-102 469.6457,-108 463.6457,-108"/>
<text text-anchor="middle" x="438.3276" y="-85.8" font-family="Times,serif" font-size="14.00" fill="#000000">Asymetric</text>
</g>
<!-- encryption&#45;&gt;asymetric -->
<g id="edge13" class="edge">
<title>encryption&#45;&gt;asymetric</title>
<path fill="none" stroke="#000000" d="M403.6589,-157.7616C409.6675,-146.0176 417.5886,-130.5355 424.3424,-117.3349"/>
<polygon fill="#000000" stroke="#000000" points="427.5709,-118.7088 429.0098,-108.2121 421.3391,-115.5204 427.5709,-118.7088"/>
</g>
<!-- elliptic -->
<g id="node15" class="node">
<title>elliptic</title>
<path fill="none" stroke="#000000" d="M458.1763,-36C458.1763,-36 252.479,-36 252.479,-36 246.479,-36 240.479,-30 240.479,-24 240.479,-24 240.479,-12 240.479,-12 240.479,-6 246.479,0 252.479,0 252.479,0 458.1763,0 458.1763,0 464.1763,0 470.1763,-6 470.1763,-12 470.1763,-12 470.1763,-24 470.1763,-24 470.1763,-30 464.1763,-36 458.1763,-36"/>
<text text-anchor="middle" x="355.3276" y="-13.8" font-family="Times,serif" font-size="14.00" fill="#000000">ECC aka Elliptic Curve Cryptography</text>
</g>
<!-- asymetric&#45;&gt;elliptic -->
<g id="edge14" class="edge">
<title>asymetric&#45;&gt;elliptic</title>
<path fill="none" stroke="#000000" d="M417.3832,-71.8314C407.2585,-63.0485 394.95,-52.3712 383.9728,-42.8489"/>
<polygon fill="#000000" stroke="#000000" points="386.1127,-40.0718 376.2653,-36.1628 381.5258,-45.3595 386.1127,-40.0718"/>
</g>
<!-- isogenies -->
<g id="node16" class="node">
<title>isogenies</title>
<path fill="none" stroke="#000000" d="M544.7037,-36C544.7037,-36 499.9515,-36 499.9515,-36 493.9515,-36 487.9515,-30 487.9515,-24 487.9515,-24 487.9515,-12 487.9515,-12 487.9515,-6 493.9515,0 499.9515,0 499.9515,0 544.7037,0 544.7037,0 550.7037,0 556.7037,-6 556.7037,-12 556.7037,-12 556.7037,-24 556.7037,-24 556.7037,-30 550.7037,-36 544.7037,-36"/>
<text text-anchor="middle" x="522.3276" y="-13.8" font-family="Times,serif" font-size="14.00" fill="#000000">Isogenies</text>
</g>
<!-- asymetric&#45;&gt;isogenies -->
<g id="edge15" class="edge">
<title>asymetric&#45;&gt;isogenies</title>
<path fill="none" stroke="#000000" d="M459.5244,-71.8314C469.7711,-63.0485 482.2279,-52.3712 493.3373,-42.8489"/>
<polygon fill="#000000" stroke="#000000" points="495.8229,-45.3282 501.1377,-36.1628 491.2673,-40.0134 495.8229,-45.3282"/>
</g>
</g>
</svg>
