<?xml version="1.0" encoding="UTF-8" standalone="no"?>
<!DOCTYPE svg PUBLIC "-//W3C//DTD SVG 1.1//EN"
 "http://www.w3.org/Graphics/SVG/1.1/DTD/svg11.dtd">
<!-- Generated by graphviz version 2.40.1 (20161225.0304)
 -->
<!-- Title: %3 Pages: 1 -->
<svg width="1210pt" height="302pt"
 viewBox="0.00 0.00 1210.35 302.00" xmlns="http://www.w3.org/2000/svg" xmlns:xlink="http://www.w3.org/1999/xlink">
<g id="graph0" class="graph" transform="scale(1 1) rotate(0) translate(4 298)">
<title>%3</title>
<polygon fill="#ffffff" stroke="transparent" points="-4,4 -4,-298 1206.3457,-298 1206.3457,4 -4,4"/>
<!-- bitcoin -->
<g id="node1" class="node">
<title>bitcoin</title>
<path fill="none" stroke="#000000" d="M843.1607,-294C843.1607,-294 763.4086,-294 763.4086,-294 757.4086,-294 751.4086,-288 751.4086,-282 751.4086,-282 751.4086,-270 751.4086,-270 751.4086,-264 757.4086,-258 763.4086,-258 763.4086,-258 843.1607,-258 843.1607,-258 849.1607,-258 855.1607,-264 855.1607,-270 855.1607,-270 855.1607,-282 855.1607,-282 855.1607,-288 849.1607,-294 843.1607,-294"/>
<text text-anchor="middle" x="803.2847" y="-271.8" font-family="Times,serif" font-size="14.00" fill="#000000">What is Bitcoin</text>
</g>
<!-- digital_currency -->
<g id="node2" class="node">
<title>digital_currency</title>
<polygon fill="none" stroke="#000000" points="705.4508,-222 501.1186,-222 501.1186,-186 705.4508,-186 705.4508,-222"/>
<text text-anchor="middle" x="603.2847" y="-199.8" font-family="Times,serif" font-size="14.00" fill="#000000">First battle tested digital currency</text>
</g>
<!-- bitcoin&#45;&gt;digital_currency -->
<g id="edge1" class="edge">
<title>bitcoin&#45;&gt;digital_currency</title>
<path fill="none" stroke="#000000" d="M753.0744,-257.9243C725.7332,-248.0815 691.7252,-235.8386 663.0271,-225.5073"/>
<polygon fill="#000000" stroke="#000000" points="664.11,-222.1773 653.5156,-222.0831 661.739,-228.7635 664.11,-222.1773"/>
</g>
<!-- payment_network -->
<g id="node3" class="node">
<title>payment_network</title>
<polygon fill="none" stroke="#000000" points="882.8677,-222 723.7016,-222 723.7016,-186 882.8677,-186 882.8677,-222"/>
<text text-anchor="middle" x="803.2847" y="-199.8" font-family="Times,serif" font-size="14.00" fill="#000000">Global Payment Network</text>
</g>
<!-- bitcoin&#45;&gt;payment_network -->
<g id="edge2" class="edge">
<title>bitcoin&#45;&gt;payment_network</title>
<path fill="none" stroke="#000000" d="M803.2847,-257.8314C803.2847,-250.131 803.2847,-240.9743 803.2847,-232.4166"/>
<polygon fill="#000000" stroke="#000000" points="806.7848,-232.4132 803.2847,-222.4133 799.7848,-232.4133 806.7848,-232.4132"/>
</g>
<!-- valuable -->
<g id="node4" class="node">
<title>valuable</title>
<path fill="none" stroke="#000000" d="M1095.7755,-222C1095.7755,-222 912.7939,-222 912.7939,-222 906.7939,-222 900.7939,-216 900.7939,-210 900.7939,-210 900.7939,-198 900.7939,-198 900.7939,-192 906.7939,-186 912.7939,-186 912.7939,-186 1095.7755,-186 1095.7755,-186 1101.7755,-186 1107.7755,-192 1107.7755,-198 1107.7755,-198 1107.7755,-210 1107.7755,-210 1107.7755,-216 1101.7755,-222 1095.7755,-222"/>
<text text-anchor="middle" x="1004.2847" y="-199.8" font-family="Times,serif" font-size="14.00" fill="#000000">what primarily makes it valuable?</text>
</g>
<!-- bitcoin&#45;&gt;valuable -->
<g id="edge3" class="edge">
<title>bitcoin&#45;&gt;valuable</title>
<path fill="none" stroke="#000000" d="M853.746,-257.9243C881.2239,-248.0815 915.4019,-235.8386 944.2435,-225.5073"/>
<polygon fill="#000000" stroke="#000000" points="945.5686,-228.7505 953.8026,-222.0831 943.208,-222.1605 945.5686,-228.7505"/>
</g>
<!-- bitcoin_properties -->
<g id="node8" class="node">
<title>bitcoin_properties</title>
<path fill="none" stroke="#000000" d="M648.6475,-150C648.6475,-150 557.9218,-150 557.9218,-150 551.9218,-150 545.9218,-144 545.9218,-138 545.9218,-138 545.9218,-126 545.9218,-126 545.9218,-120 551.9218,-114 557.9218,-114 557.9218,-114 648.6475,-114 648.6475,-114 654.6475,-114 660.6475,-120 660.6475,-126 660.6475,-126 660.6475,-138 660.6475,-138 660.6475,-144 654.6475,-150 648.6475,-150"/>
<text text-anchor="middle" x="603.2847" y="-127.8" font-family="Times,serif" font-size="14.00" fill="#000000">bitcoin properties</text>
</g>
<!-- digital_currency&#45;&gt;bitcoin_properties -->
<g id="edge7" class="edge">
<title>digital_currency&#45;&gt;bitcoin_properties</title>
<path fill="none" stroke="#000000" d="M603.2847,-185.8314C603.2847,-178.131 603.2847,-168.9743 603.2847,-160.4166"/>
<polygon fill="#000000" stroke="#000000" points="606.7848,-160.4132 603.2847,-150.4133 599.7848,-160.4133 606.7848,-160.4132"/>
</g>
<!-- scaling_human_communication -->
<g id="node7" class="node">
<title>scaling_human_communication</title>
<path fill="none" stroke="#000000" d="M891.5681,-150C891.5681,-150 715.0013,-150 715.0013,-150 709.0013,-150 703.0013,-144 703.0013,-138 703.0013,-138 703.0013,-126 703.0013,-126 703.0013,-120 709.0013,-114 715.0013,-114 715.0013,-114 891.5681,-114 891.5681,-114 897.5681,-114 903.5681,-120 903.5681,-126 903.5681,-126 903.5681,-138 903.5681,-138 903.5681,-144 897.5681,-150 891.5681,-150"/>
<text text-anchor="middle" x="803.2847" y="-134.8" font-family="Times,serif" font-size="14.00" fill="#000000">Drastically scale monetary</text>
<text text-anchor="middle" x="803.2847" y="-120.8" font-family="Times,serif" font-size="14.00" fill="#000000">communication between humans</text>
</g>
<!-- payment_network&#45;&gt;scaling_human_communication -->
<g id="edge6" class="edge">
<title>payment_network&#45;&gt;scaling_human_communication</title>
<path fill="none" stroke="#000000" d="M803.2847,-185.8314C803.2847,-178.131 803.2847,-168.9743 803.2847,-160.4166"/>
<polygon fill="#000000" stroke="#000000" points="806.7848,-160.4132 803.2847,-150.4133 799.7848,-160.4133 806.7848,-160.4132"/>
</g>
<!-- scarce -->
<g id="node5" class="node">
<title>scarce</title>
<path fill="none" stroke="#000000" d="M991.2847,-150C991.2847,-150 961.2847,-150 961.2847,-150 955.2847,-150 949.2847,-144 949.2847,-138 949.2847,-138 949.2847,-126 949.2847,-126 949.2847,-120 955.2847,-114 961.2847,-114 961.2847,-114 991.2847,-114 991.2847,-114 997.2847,-114 1003.2847,-120 1003.2847,-126 1003.2847,-126 1003.2847,-138 1003.2847,-138 1003.2847,-144 997.2847,-150 991.2847,-150"/>
<text text-anchor="middle" x="976.2847" y="-127.8" font-family="Times,serif" font-size="14.00" fill="#000000">Scarce</text>
</g>
<!-- valuable&#45;&gt;scarce -->
<g id="edge4" class="edge">
<title>valuable&#45;&gt;scarce</title>
<path fill="none" stroke="#000000" d="M997.2191,-185.8314C994.1587,-177.9617 990.5068,-168.5712 987.1165,-159.8533"/>
<polygon fill="#000000" stroke="#000000" points="990.3319,-158.4647 983.4454,-150.4133 983.8079,-161.0019 990.3319,-158.4647"/>
</g>
<!-- useful -->
<g id="node6" class="node">
<title>useful</title>
<path fill="none" stroke="#000000" d="M1063.2847,-150C1063.2847,-150 1033.2847,-150 1033.2847,-150 1027.2847,-150 1021.2847,-144 1021.2847,-138 1021.2847,-138 1021.2847,-126 1021.2847,-126 1021.2847,-120 1027.2847,-114 1033.2847,-114 1033.2847,-114 1063.2847,-114 1063.2847,-114 1069.2847,-114 1075.2847,-120 1075.2847,-126 1075.2847,-126 1075.2847,-138 1075.2847,-138 1075.2847,-144 1069.2847,-150 1063.2847,-150"/>
<text text-anchor="middle" x="1048.2847" y="-127.8" font-family="Times,serif" font-size="14.00" fill="#000000">Useful</text>
</g>
<!-- valuable&#45;&gt;useful -->
<g id="edge5" class="edge">
<title>valuable&#45;&gt;useful</title>
<path fill="none" stroke="#000000" d="M1015.3877,-185.8314C1020.3521,-177.7079 1026.3068,-167.9637 1031.7775,-159.0118"/>
<polygon fill="#000000" stroke="#000000" points="1034.8041,-160.7712 1037.0321,-150.4133 1028.8311,-157.121 1034.8041,-160.7712"/>
</g>
<!-- scarcity -->
<g id="node9" class="node">
<title>scarcity</title>
<path fill="none" stroke="#000000" d="M192.3545,-57C192.3545,-57 12.2149,-57 12.2149,-57 6.2149,-57 .2149,-51 .2149,-45 .2149,-45 .2149,-33 .2149,-33 .2149,-27 6.2149,-21 12.2149,-21 12.2149,-21 192.3545,-21 192.3545,-21 198.3545,-21 204.3545,-27 204.3545,-33 204.3545,-33 204.3545,-45 204.3545,-45 204.3545,-51 198.3545,-57 192.3545,-57"/>
<text text-anchor="middle" x="102.2847" y="-34.8" font-family="Times,serif" font-size="14.00" fill="#000000">Never more than 21 million coins</text>
</g>
<!-- bitcoin_properties&#45;&gt;scarcity -->
<g id="edge8" class="edge">
<title>bitcoin_properties&#45;&gt;scarcity</title>
<path fill="none" stroke="#000000" d="M545.7762,-127.6634C469.0998,-121.0608 329.5403,-106.1704 213.2847,-78 194.5253,-73.4543 174.4902,-66.9503 156.6775,-60.5532"/>
<polygon fill="#000000" stroke="#000000" points="157.6262,-57.1734 147.0324,-57.0233 155.2204,-63.747 157.6262,-57.1734"/>
</g>
<!-- divisible -->
<g id="node10" class="node">
<title>divisible</title>
<path fill="none" stroke="#000000" d="M470.704,-78C470.704,-78 233.8654,-78 233.8654,-78 227.8654,-78 221.8654,-72 221.8654,-66 221.8654,-66 221.8654,-12 221.8654,-12 221.8654,-6 227.8654,0 233.8654,0 233.8654,0 470.704,0 470.704,0 476.704,0 482.704,-6 482.704,-12 482.704,-12 482.704,-66 482.704,-66 482.704,-72 476.704,-78 470.704,-78"/>
<text text-anchor="middle" x="352.2847" y="-62.8" font-family="Times,serif" font-size="14.00" fill="#000000">Homogeneous, every bitcoin is equal.</text>
<text text-anchor="middle" x="352.2847" y="-48.8" font-family="Times,serif" font-size="14.00" fill="#000000">Extremely portable and divisible</text>
<text text-anchor="middle" x="352.2847" y="-34.8" font-family="Times,serif" font-size="14.00" fill="#000000">by a 100 million. You could control</text>
<text text-anchor="middle" x="352.2847" y="-20.8" font-family="Times,serif" font-size="14.00" fill="#000000">zillions worth by memorizing a private key.</text>
<text text-anchor="middle" x="352.2847" y="-6.8" font-family="Times,serif" font-size="14.00" fill="#000000">Add to that they don&#39;t decay (durable)</text>
</g>
<!-- bitcoin_properties&#45;&gt;divisible -->
<g id="edge9" class="edge">
<title>bitcoin_properties&#45;&gt;divisible</title>
<path fill="none" stroke="#000000" d="M554.5917,-113.9584C529.592,-104.6955 497.9853,-92.9847 467.23,-81.5893"/>
<polygon fill="#000000" stroke="#000000" points="468.3139,-78.2585 457.7209,-78.066 465.8818,-84.8224 468.3139,-78.2585"/>
</g>
<!-- no_double_spend -->
<g id="node11" class="node">
<title>no_double_spend</title>
<path fill="none" stroke="#000000" d="M694.0026,-64C694.0026,-64 512.5667,-64 512.5667,-64 506.5667,-64 500.5667,-58 500.5667,-52 500.5667,-52 500.5667,-26 500.5667,-26 500.5667,-20 506.5667,-14 512.5667,-14 512.5667,-14 694.0026,-14 694.0026,-14 700.0026,-14 706.0026,-20 706.0026,-26 706.0026,-26 706.0026,-52 706.0026,-52 706.0026,-58 700.0026,-64 694.0026,-64"/>
<text text-anchor="middle" x="603.2847" y="-48.8" font-family="Times,serif" font-size="14.00" fill="#000000">Hard to counterfeit.</text>
<text text-anchor="middle" x="603.2847" y="-34.8" font-family="Times,serif" font-size="14.00" fill="#000000">Nodes will reject any transactions</text>
<text text-anchor="middle" x="603.2847" y="-20.8" font-family="Times,serif" font-size="14.00" fill="#000000">that could be a double spend</text>
</g>
<!-- bitcoin_properties&#45;&gt;no_double_spend -->
<g id="edge10" class="edge">
<title>bitcoin_properties&#45;&gt;no_double_spend</title>
<path fill="none" stroke="#000000" d="M603.2847,-113.6262C603.2847,-102.432 603.2847,-87.7543 603.2847,-74.3803"/>
<polygon fill="#000000" stroke="#000000" points="606.7848,-74.0255 603.2847,-64.0255 599.7848,-74.0255 606.7848,-74.0255"/>
</g>
<!-- free_market -->
<g id="node12" class="node">
<title>free_market</title>
<path fill="none" stroke="#000000" d="M970.5299,-71C970.5299,-71 736.0394,-71 736.0394,-71 730.0394,-71 724.0394,-65 724.0394,-59 724.0394,-59 724.0394,-19 724.0394,-19 724.0394,-13 730.0394,-7 736.0394,-7 736.0394,-7 970.5299,-7 970.5299,-7 976.5299,-7 982.5299,-13 982.5299,-19 982.5299,-19 982.5299,-59 982.5299,-59 982.5299,-65 976.5299,-71 970.5299,-71"/>
<text text-anchor="middle" x="853.2847" y="-55.8" font-family="Times,serif" font-size="14.00" fill="#000000">As there no centralized entity</text>
<text text-anchor="middle" x="853.2847" y="-41.8" font-family="Times,serif" font-size="14.00" fill="#000000">controlling the price. You can buy a bitcoin</text>
<text text-anchor="middle" x="853.2847" y="-27.8" font-family="Times,serif" font-size="14.00" fill="#000000">(or some portions) at an exchange</text>
<text text-anchor="middle" x="853.2847" y="-13.8" font-family="Times,serif" font-size="14.00" fill="#000000">at the current market price</text>
</g>
<!-- bitcoin_properties&#45;&gt;free_market -->
<g id="edge11" class="edge">
<title>bitcoin_properties&#45;&gt;free_market</title>
<path fill="none" stroke="#000000" d="M651.7836,-113.9584C681.8286,-102.7817 721.4544,-88.0408 757.611,-74.5906"/>
<polygon fill="#000000" stroke="#000000" points="759.0594,-77.7862 767.2116,-71.0192 756.6188,-71.2254 759.0594,-77.7862"/>
</g>
<!-- secure -->
<g id="node13" class="node">
<title>secure</title>
<polygon fill="none" stroke="#000000" points="1202.4068,-57 1000.1626,-57 1000.1626,-21 1202.4068,-21 1202.4068,-57"/>
<text text-anchor="middle" x="1101.2847" y="-41.8" font-family="Times,serif" font-size="14.00" fill="#000000">Transactions are secured by PKC</text>
<text text-anchor="middle" x="1101.2847" y="-27.8" font-family="Times,serif" font-size="14.00" fill="#000000">public key cryptography.</text>
</g>
<!-- bitcoin_properties&#45;&gt;secure -->
<g id="edge12" class="edge">
<title>bitcoin_properties&#45;&gt;secure</title>
<path fill="none" stroke="#000000" d="M660.9361,-119.9224C671.9797,-117.8001 683.4698,-115.7226 694.2847,-114 825.5956,-93.0849 861.8404,-108.4002 991.2847,-78 1010.0915,-73.5832 1030.1476,-67.0467 1047.9138,-60.5821"/>
<polygon fill="#000000" stroke="#000000" points="1049.3702,-63.7748 1057.5258,-57.0119 1046.9329,-57.2128 1049.3702,-63.7748"/>
</g>
</g>
</svg>
