<?xml version="1.0" encoding="UTF-8" standalone="no"?>
<!DOCTYPE svg PUBLIC "-//W3C//DTD SVG 1.1//EN"
 "http://www.w3.org/Graphics/SVG/1.1/DTD/svg11.dtd">
<!-- Generated by graphviz version 2.40.1 (20161225.0304)
 -->
<!-- Title: %3 Pages: 1 -->
<svg width="958pt" height="462pt"
 viewBox="0.00 0.00 958.01 462.00" xmlns="http://www.w3.org/2000/svg" xmlns:xlink="http://www.w3.org/1999/xlink">
<g id="graph0" class="graph" transform="scale(1 1) rotate(0) translate(4 458)">
<title>%3</title>
<polygon fill="#ffffff" stroke="transparent" points="-4,4 -4,-458 954.0122,-458 954.0122,4 -4,4"/>
<!-- dont_get_it -->
<g id="node1" class="node">
<title>dont_get_it</title>
<path fill="none" stroke="#000000" d="M777.1651,-454C777.1651,-454 370.4736,-454 370.4736,-454 364.4736,-454 358.4736,-448 358.4736,-442 358.4736,-442 358.4736,-430 358.4736,-430 358.4736,-424 364.4736,-418 370.4736,-418 370.4736,-418 777.1651,-418 777.1651,-418 783.1651,-418 789.1651,-424 789.1651,-430 789.1651,-430 789.1651,-442 789.1651,-442 789.1651,-448 783.1651,-454 777.1651,-454"/>
<text text-anchor="middle" x="573.8193" y="-431.8" font-family="Times,serif" font-size="14.00" fill="#000000">Bitcoin articles are getting more confusing to you or making you feel lost.</text>
</g>
<!-- do_you_understand_bitcoin -->
<g id="node2" class="node">
<title>do_you_understand_bitcoin</title>
<polygon fill="none" stroke="#000000" points="573.8193,-381 353.6181,-345 573.8193,-309 794.0206,-345 573.8193,-381"/>
<text text-anchor="middle" x="573.8193" y="-347.8" font-family="Times,serif" font-size="14.00" fill="#000000">Do you have a decent understanding</text>
<text text-anchor="middle" x="573.8193" y="-333.8" font-family="Times,serif" font-size="14.00" fill="#000000"> &#160;&#160;&#160;of Bitcoin?</text>
</g>
<!-- dont_get_it&#45;&gt;do_you_understand_bitcoin -->
<g id="edge1" class="edge">
<title>dont_get_it&#45;&gt;do_you_understand_bitcoin</title>
<path fill="none" stroke="#000000" d="M573.8193,-417.5848C573.8193,-409.8806 573.8193,-400.5476 573.8193,-391.1763"/>
<polygon fill="#000000" stroke="#000000" points="577.3194,-391.0677 573.8193,-381.0677 570.3194,-391.0677 577.3194,-391.0677"/>
</g>
<!-- how_bitcoin_is_bootstraped -->
<g id="node3" class="node">
<title>how_bitcoin_is_bootstraped</title>
<polygon fill="none" stroke="#000000" points="368.8193,-259 119.6494,-223 368.8193,-187 617.9893,-223 368.8193,-259"/>
<text text-anchor="middle" x="368.8193" y="-225.8" font-family="Times,serif" font-size="14.00" fill="#000000">Do you have an idea of how Bitcoin was</text>
<text text-anchor="middle" x="368.8193" y="-211.8" font-family="Times,serif" font-size="14.00" fill="#000000"> &#160;&#160;&#160;bootstrapped or why it hasn&#39;t fail so far</text>
</g>
<!-- do_you_understand_bitcoin&#45;&gt;how_bitcoin_is_bootstraped -->
<g id="edge2" class="edge">
<title>do_you_understand_bitcoin&#45;&gt;how_bitcoin_is_bootstraped</title>
<path fill="none" stroke="#000000" d="M526.2729,-316.7041C496.4333,-298.9458 457.7717,-275.9375 426.2268,-257.1644"/>
<polygon fill="#000000" stroke="#000000" points="427.9148,-254.0961 417.5314,-251.9896 424.3349,-260.1115 427.9148,-254.0961"/>
<text text-anchor="middle" x="487.1504" y="-279.8" font-family="Times,serif" font-size="14.00" fill="#000000">yes</text>
</g>
<!-- read_the_white_paper -->
<g id="node4" class="node">
<title>read_the_white_paper</title>
<polygon fill="none" stroke="#000000" points="923.6858,-255 635.9529,-255 635.9529,-191 923.6858,-191 923.6858,-255"/>
<text text-anchor="middle" x="779.8193" y="-239.8" font-family="Times,serif" font-size="14.00" fill="#000000">The white&#45;paper is a must read:</text>
<text text-anchor="middle" x="779.8193" y="-225.8" font-family="Times,serif" font-size="14.00" fill="#000000"> &#160;&#160;&#160;https://bitcoin.org/bitcoin.pdf</text>
<text text-anchor="middle" x="779.8193" y="-211.8" font-family="Times,serif" font-size="14.00" fill="#000000"> &#160;&#160;&#160;Read it a couple times. Did you have any idea</text>
<text text-anchor="middle" x="779.8193" y="-197.8" font-family="Times,serif" font-size="14.00" fill="#000000"> &#160;&#160;&#160;of what Satoshi is talking about?</text>
</g>
<!-- do_you_understand_bitcoin&#45;&gt;read_the_white_paper -->
<g id="edge3" class="edge">
<title>do_you_understand_bitcoin&#45;&gt;read_the_white_paper</title>
<path fill="none" stroke="#000000" d="M621.5977,-316.7041C649.9403,-299.9187 686.2031,-278.4426 716.8606,-260.2862"/>
<polygon fill="#000000" stroke="#000000" points="718.9418,-263.1215 725.7626,-255.0142 715.3748,-257.0985 718.9418,-263.1215"/>
<text text-anchor="middle" x="690.8193" y="-279.8" font-family="Times,serif" font-size="14.00" fill="#000000">no</text>
</g>
<!-- take_coursera_bitcoin_course -->
<g id="node7" class="node">
<title>take_coursera_bitcoin_course</title>
<polygon fill="none" stroke="#000000" points="291.4582,-137 .1804,-137 .1804,-87 291.4582,-87 291.4582,-137"/>
<text text-anchor="middle" x="145.8193" y="-121.8" font-family="Times,serif" font-size="14.00" fill="#000000">Take coursera&#39;s bitcoin course:</text>
<text text-anchor="middle" x="145.8193" y="-107.8" font-family="Times,serif" font-size="14.00" fill="#000000"> &#160;&#160;&#160;https://www.coursera.org/learn/cryptocurrency</text>
<text text-anchor="middle" x="145.8193" y="-93.8" font-family="Times,serif" font-size="14.00" fill="#000000"> &#160;&#160;&#160;</text>
</g>
<!-- how_bitcoin_is_bootstraped&#45;&gt;take_coursera_bitcoin_course -->
<g id="edge6" class="edge">
<title>how_bitcoin_is_bootstraped&#45;&gt;take_coursera_bitcoin_course</title>
<path fill="none" stroke="#000000" d="M312.547,-194.99C279.8779,-178.7287 238.7464,-158.2552 205.5115,-141.7122"/>
<polygon fill="#000000" stroke="#000000" points="206.8725,-138.4801 196.3605,-137.1573 203.7532,-144.7467 206.8725,-138.4801"/>
<text text-anchor="middle" x="264.8193" y="-157.8" font-family="Times,serif" font-size="14.00" fill="#000000">no</text>
</g>
<!-- do_you_know_the_different_algorithms -->
<g id="node8" class="node">
<title>do_you_know_the_different_algorithms</title>
<polygon fill="none" stroke="#000000" points="510.0061,-137 309.6326,-137 309.6326,-87 510.0061,-87 510.0061,-137"/>
<text text-anchor="middle" x="409.8193" y="-121.8" font-family="Times,serif" font-size="14.00" fill="#000000">Play with Sha256 and read about</text>
<text text-anchor="middle" x="409.8193" y="-107.8" font-family="Times,serif" font-size="14.00" fill="#000000"> &#160;&#160;&#160;the gist of private keys</text>
<text text-anchor="middle" x="409.8193" y="-93.8" font-family="Times,serif" font-size="14.00" fill="#000000"> &#160;&#160;&#160;POW (proof of work)</text>
</g>
<!-- how_bitcoin_is_bootstraped&#45;&gt;do_you_know_the_different_algorithms -->
<g id="edge7" class="edge">
<title>how_bitcoin_is_bootstraped&#45;&gt;do_you_know_the_different_algorithms</title>
<path fill="none" stroke="#000000" d="M381.4552,-188.7906C386.4158,-175.3608 392.1004,-159.9707 397.0718,-146.5118"/>
<polygon fill="#000000" stroke="#000000" points="400.3633,-147.7018 400.545,-137.1085 393.7969,-145.2763 400.3633,-147.7018"/>
<text text-anchor="middle" x="403.1504" y="-157.8" font-family="Times,serif" font-size="14.00" fill="#000000">yes</text>
</g>
<!-- read_whats_blockchain_anyway -->
<g id="node5" class="node">
<title>read_whats_blockchain_anyway</title>
<polygon fill="none" stroke="#000000" points="950.2053,-137 609.4334,-137 609.4334,-87 950.2053,-87 950.2053,-137"/>
<text text-anchor="middle" x="779.8193" y="-121.8" font-family="Times,serif" font-size="14.00" fill="#000000">Read one of the best explanation of a blockchain:</text>
<text text-anchor="middle" x="779.8193" y="-107.8" font-family="Times,serif" font-size="14.00" fill="#000000"> &#160;&#160;&#160;https://coincenter.org/entry/what&#45;is&#45;blockchain&#45;anyway</text>
<text text-anchor="middle" x="779.8193" y="-93.8" font-family="Times,serif" font-size="14.00" fill="#000000"> &#160;&#160;&#160;Then basics again: https://bitcoin.org/en/how&#45;it&#45;works</text>
</g>
<!-- read_the_white_paper&#45;&gt;read_whats_blockchain_anyway -->
<g id="edge4" class="edge">
<title>read_the_white_paper&#45;&gt;read_whats_blockchain_anyway</title>
<path fill="none" stroke="#000000" d="M779.8193,-190.8942C779.8193,-177.3222 779.8193,-161.4656 779.8193,-147.5423"/>
<polygon fill="#000000" stroke="#000000" points="783.3194,-147.3417 779.8193,-137.3417 776.3194,-147.3417 783.3194,-147.3417"/>
</g>
<!-- how_bitcoin_is_bootstrapped -->
<g id="node6" class="node">
<title>how_bitcoin_is_bootstrapped</title>
<ellipse fill="none" stroke="#000000" cx="779.8193" cy="-25" rx="114.9865" ry="18"/>
<text text-anchor="middle" x="779.8193" y="-20.8" font-family="Times,serif" font-size="14.00" fill="#000000">how_bitcoin_is_bootstrapped</text>
</g>
<!-- read_whats_blockchain_anyway&#45;&gt;how_bitcoin_is_bootstrapped -->
<g id="edge5" class="edge">
<title>read_whats_blockchain_anyway&#45;&gt;how_bitcoin_is_bootstrapped</title>
<path fill="none" stroke="#000000" d="M779.8193,-86.836C779.8193,-76.3725 779.8193,-64.1766 779.8193,-53.3944"/>
<polygon fill="#000000" stroke="#000000" points="783.3194,-53.1999 779.8193,-43.2 776.3194,-53.2 783.3194,-53.1999"/>
</g>
<!-- learn_about_ethereum -->
<g id="node9" class="node">
<title>learn_about_ethereum</title>
<polygon fill="none" stroke="#000000" points="606.8596,-50 212.779,-50 212.779,0 606.8596,0 606.8596,-50"/>
<text text-anchor="middle" x="409.8193" y="-34.8" font-family="Times,serif" font-size="14.00" fill="#000000">Start reading about Ethereum and other cryptocurrencies</text>
<text text-anchor="middle" x="409.8193" y="-20.8" font-family="Times,serif" font-size="14.00" fill="#000000"> &#160;&#160;&#160;You&#39;ll have fun thinking about the implications of the new crypto</text>
<text text-anchor="middle" x="409.8193" y="-6.8" font-family="Times,serif" font-size="14.00" fill="#000000"> &#160;&#160;&#160;innovations. Contribute fixes to this. Bring it closer to perfect.</text>
</g>
<!-- do_you_know_the_different_algorithms&#45;&gt;learn_about_ethereum -->
<g id="edge8" class="edge">
<title>do_you_know_the_different_algorithms&#45;&gt;learn_about_ethereum</title>
<path fill="none" stroke="#000000" d="M409.8193,-86.836C409.8193,-78.5399 409.8193,-69.1547 409.8193,-60.2485"/>
<polygon fill="#000000" stroke="#000000" points="413.3194,-60.1074 409.8193,-50.1075 406.3194,-60.1075 413.3194,-60.1074"/>
</g>
</g>
</svg>
