<?xml version="1.0" encoding="UTF-8" standalone="no"?>
<!DOCTYPE svg PUBLIC "-//W3C//DTD SVG 1.1//EN"
 "http://www.w3.org/Graphics/SVG/1.1/DTD/svg11.dtd">
<!-- Generated by graphviz version 2.40.1 (20161225.0304)
 -->
<!-- Title: %3 Pages: 1 -->
<svg width="959pt" height="463pt"
 viewBox="0.00 0.00 959.01 462.91" xmlns="http://www.w3.org/2000/svg" xmlns:xlink="http://www.w3.org/1999/xlink">
<g id="graph0" class="graph" transform="scale(1 1) rotate(0) translate(4 458.9117)">
<title>%3</title>
<polygon fill="#ffffff" stroke="transparent" points="-4,4 -4,-458.9117 955.0122,-458.9117 955.0122,4 -4,4"/>
<!-- dont_get_it -->
<g id="node1" class="node">
<title>dont_get_it</title>
<path fill="none" stroke="#000000" d="M778.1651,-454.9117C778.1651,-454.9117 371.4736,-454.9117 371.4736,-454.9117 365.4736,-454.9117 359.4736,-448.9117 359.4736,-442.9117 359.4736,-442.9117 359.4736,-430.9117 359.4736,-430.9117 359.4736,-424.9117 365.4736,-418.9117 371.4736,-418.9117 371.4736,-418.9117 778.1651,-418.9117 778.1651,-418.9117 784.1651,-418.9117 790.1651,-424.9117 790.1651,-430.9117 790.1651,-430.9117 790.1651,-442.9117 790.1651,-442.9117 790.1651,-448.9117 784.1651,-454.9117 778.1651,-454.9117"/>
<text text-anchor="middle" x="574.8193" y="-432.7117" font-family="Times,serif" font-size="14.00" fill="#000000">Bitcoin articles are getting more confusing to you or making you feel lost.</text>
</g>
<!-- do_you_understand_bitcoin -->
<g id="node2" class="node">
<title>do_you_understand_bitcoin</title>
<polygon fill="none" stroke="#000000" points="574.8193,-381.9117 354.6181,-345.9117 574.8193,-309.9117 795.0206,-345.9117 574.8193,-381.9117"/>
<text text-anchor="middle" x="574.8193" y="-348.7117" font-family="Times,serif" font-size="14.00" fill="#000000">Do you have a decent understanding</text>
<text text-anchor="middle" x="574.8193" y="-334.7117" font-family="Times,serif" font-size="14.00" fill="#000000"> &#160;&#160;&#160;of Bitcoin?</text>
</g>
<!-- dont_get_it&#45;&gt;do_you_understand_bitcoin -->
<g id="edge1" class="edge">
<title>dont_get_it&#45;&gt;do_you_understand_bitcoin</title>
<path fill="none" stroke="#000000" d="M574.8193,-418.4965C574.8193,-410.7923 574.8193,-401.4593 574.8193,-392.088"/>
<polygon fill="#000000" stroke="#000000" points="578.3194,-391.9794 574.8193,-381.9794 571.3194,-391.9794 578.3194,-391.9794"/>
</g>
<!-- how_bitcoin_is_bootstraped -->
<g id="node3" class="node">
<title>how_bitcoin_is_bootstraped</title>
<polygon fill="none" stroke="#000000" points="369.8193,-259.9117 120.6494,-223.9117 369.8193,-187.9117 618.9893,-223.9117 369.8193,-259.9117"/>
<text text-anchor="middle" x="369.8193" y="-226.7117" font-family="Times,serif" font-size="14.00" fill="#000000">Do you have an idea of how Bitcoin was</text>
<text text-anchor="middle" x="369.8193" y="-212.7117" font-family="Times,serif" font-size="14.00" fill="#000000"> &#160;&#160;&#160;bootstrapped or why it hasn&#39;t fail so far</text>
</g>
<!-- do_you_understand_bitcoin&#45;&gt;how_bitcoin_is_bootstraped -->
<g id="edge2" class="edge">
<title>do_you_understand_bitcoin&#45;&gt;how_bitcoin_is_bootstraped</title>
<path fill="none" stroke="#000000" d="M527.2729,-317.6158C497.4333,-299.8575 458.7717,-276.8492 427.2268,-258.0761"/>
<polygon fill="#000000" stroke="#000000" points="428.9148,-255.0078 418.5314,-252.9013 425.3349,-261.0232 428.9148,-255.0078"/>
<text text-anchor="middle" x="488.1504" y="-280.7117" font-family="Times,serif" font-size="14.00" fill="#000000">yes</text>
</g>
<!-- read_the_white_paper -->
<g id="node4" class="node">
<title>read_the_white_paper</title>
<polygon fill="none" stroke="#000000" points="924.6858,-255.9117 636.9529,-255.9117 636.9529,-191.9117 924.6858,-191.9117 924.6858,-255.9117"/>
<text text-anchor="middle" x="780.8193" y="-240.7117" font-family="Times,serif" font-size="14.00" fill="#000000">The white&#45;paper is a must read:</text>
<text text-anchor="middle" x="780.8193" y="-226.7117" font-family="Times,serif" font-size="14.00" fill="#000000"> &#160;&#160;&#160;https://bitcoin.org/bitcoin.pdf</text>
<text text-anchor="middle" x="780.8193" y="-212.7117" font-family="Times,serif" font-size="14.00" fill="#000000"> &#160;&#160;&#160;Read it a couple times. Did you have any idea</text>
<text text-anchor="middle" x="780.8193" y="-198.7117" font-family="Times,serif" font-size="14.00" fill="#000000"> &#160;&#160;&#160;of what Satoshi is talking about?</text>
</g>
<!-- do_you_understand_bitcoin&#45;&gt;read_the_white_paper -->
<g id="edge3" class="edge">
<title>do_you_understand_bitcoin&#45;&gt;read_the_white_paper</title>
<path fill="none" stroke="#000000" d="M622.5977,-317.6158C650.9403,-300.8304 687.2031,-279.3543 717.8606,-261.1979"/>
<polygon fill="#000000" stroke="#000000" points="719.9418,-264.0332 726.7626,-255.9259 716.3748,-258.0102 719.9418,-264.0332"/>
<text text-anchor="middle" x="691.8193" y="-280.7117" font-family="Times,serif" font-size="14.00" fill="#000000">no</text>
</g>
<!-- take_coursera_bitcoin_course -->
<g id="node7" class="node">
<title>take_coursera_bitcoin_course</title>
<polygon fill="none" stroke="#000000" points="291.4582,-137.9117 .1804,-137.9117 .1804,-87.9117 291.4582,-87.9117 291.4582,-137.9117"/>
<text text-anchor="middle" x="145.8193" y="-122.7117" font-family="Times,serif" font-size="14.00" fill="#000000">Take coursera&#39;s bitcoin course:</text>
<text text-anchor="middle" x="145.8193" y="-108.7117" font-family="Times,serif" font-size="14.00" fill="#000000"> &#160;&#160;&#160;https://www.coursera.org/learn/cryptocurrency</text>
<text text-anchor="middle" x="145.8193" y="-94.7117" font-family="Times,serif" font-size="14.00" fill="#000000"> &#160;&#160;&#160;</text>
</g>
<!-- how_bitcoin_is_bootstraped&#45;&gt;take_coursera_bitcoin_course -->
<g id="edge6" class="edge">
<title>how_bitcoin_is_bootstraped&#45;&gt;take_coursera_bitcoin_course</title>
<path fill="none" stroke="#000000" d="M313.2947,-195.9017C280.4791,-179.6404 239.1631,-159.1669 205.7792,-142.6239"/>
<polygon fill="#000000" stroke="#000000" points="207.1014,-139.373 196.5872,-138.069 203.9933,-145.6452 207.1014,-139.373"/>
<text text-anchor="middle" x="264.8193" y="-158.7117" font-family="Times,serif" font-size="14.00" fill="#000000">no</text>
</g>
<!-- do_you_know_the_different_algorithms -->
<g id="node8" class="node">
<title>do_you_know_the_different_algorithms</title>
<polygon fill="none" stroke="#000000" points="510.0061,-137.9117 309.6326,-137.9117 309.6326,-87.9117 510.0061,-87.9117 510.0061,-137.9117"/>
<text text-anchor="middle" x="409.8193" y="-122.7117" font-family="Times,serif" font-size="14.00" fill="#000000">Play with Sha256 and read about</text>
<text text-anchor="middle" x="409.8193" y="-108.7117" font-family="Times,serif" font-size="14.00" fill="#000000"> &#160;&#160;&#160;the gist of private keys</text>
<text text-anchor="middle" x="409.8193" y="-94.7117" font-family="Times,serif" font-size="14.00" fill="#000000"> &#160;&#160;&#160;POW (proof of work)</text>
</g>
<!-- how_bitcoin_is_bootstraped&#45;&gt;do_you_know_the_different_algorithms -->
<g id="edge7" class="edge">
<title>how_bitcoin_is_bootstraped&#45;&gt;do_you_know_the_different_algorithms</title>
<path fill="none" stroke="#000000" d="M382.2563,-189.3991C387.0079,-176.2134 392.4274,-161.1743 397.1962,-147.9409"/>
<polygon fill="#000000" stroke="#000000" points="400.5967,-148.8282 400.6942,-138.2339 394.0112,-146.4551 400.5967,-148.8282"/>
<text text-anchor="middle" x="403.1504" y="-158.7117" font-family="Times,serif" font-size="14.00" fill="#000000">yes</text>
</g>
<!-- read_whats_blockchain_anyway -->
<g id="node5" class="node">
<title>read_whats_blockchain_anyway</title>
<polygon fill="none" stroke="#000000" points="951.2053,-137.9117 610.4334,-137.9117 610.4334,-87.9117 951.2053,-87.9117 951.2053,-137.9117"/>
<text text-anchor="middle" x="780.8193" y="-122.7117" font-family="Times,serif" font-size="14.00" fill="#000000">Read one of the best explanation of a blockchain:</text>
<text text-anchor="middle" x="780.8193" y="-108.7117" font-family="Times,serif" font-size="14.00" fill="#000000"> &#160;&#160;&#160;https://coincenter.org/entry/what&#45;is&#45;blockchain&#45;anyway</text>
<text text-anchor="middle" x="780.8193" y="-94.7117" font-family="Times,serif" font-size="14.00" fill="#000000"> &#160;&#160;&#160;Then basics again: https://bitcoin.org/en/how&#45;it&#45;works</text>
</g>
<!-- read_the_white_paper&#45;&gt;read_whats_blockchain_anyway -->
<g id="edge4" class="edge">
<title>read_the_white_paper&#45;&gt;read_whats_blockchain_anyway</title>
<path fill="none" stroke="#000000" d="M780.8193,-191.8059C780.8193,-178.2339 780.8193,-162.3773 780.8193,-148.454"/>
<polygon fill="#000000" stroke="#000000" points="784.3194,-148.2534 780.8193,-138.2534 777.3194,-148.2534 784.3194,-148.2534"/>
</g>
<!-- welcome_to_crypto -->
<g id="node6" class="node">
<title>welcome_to_crypto</title>
<ellipse fill="none" stroke="#000000" cx="780.8193" cy="-25.4558" rx="116.7652" ry="25.4118"/>
<text text-anchor="middle" x="780.8193" y="-28.2558" font-family="Times,serif" font-size="14.00" fill="#000000">Welcome to crypto.</text>
<text text-anchor="middle" x="780.8193" y="-14.2558" font-family="Times,serif" font-size="14.00" fill="#000000"> &#160;&#160;&#160;Go back to the yes path.</text>
</g>
<!-- read_whats_blockchain_anyway&#45;&gt;welcome_to_crypto -->
<g id="edge5" class="edge">
<title>read_whats_blockchain_anyway&#45;&gt;welcome_to_crypto</title>
<path fill="none" stroke="#000000" d="M780.8193,-87.6158C780.8193,-79.3488 780.8193,-70.0059 780.8193,-61.1227"/>
<polygon fill="#000000" stroke="#000000" points="784.3194,-60.9978 780.8193,-50.9978 777.3194,-60.9979 784.3194,-60.9978"/>
</g>
<!-- learn_about_ethereum -->
<g id="node9" class="node">
<title>learn_about_ethereum</title>
<polygon fill="none" stroke="#000000" points="606.8596,-50.4558 212.779,-50.4558 212.779,-.4558 606.8596,-.4558 606.8596,-50.4558"/>
<text text-anchor="middle" x="409.8193" y="-35.2558" font-family="Times,serif" font-size="14.00" fill="#000000">Start reading about Ethereum and other cryptocurrencies</text>
<text text-anchor="middle" x="409.8193" y="-21.2558" font-family="Times,serif" font-size="14.00" fill="#000000"> &#160;&#160;&#160;You&#39;ll have fun thinking about the implications of the new crypto</text>
<text text-anchor="middle" x="409.8193" y="-7.2558" font-family="Times,serif" font-size="14.00" fill="#000000"> &#160;&#160;&#160;innovations. Contribute fixes to this. Bring it closer to perfect.</text>
</g>
<!-- do_you_know_the_different_algorithms&#45;&gt;learn_about_ethereum -->
<g id="edge8" class="edge">
<title>do_you_know_the_different_algorithms&#45;&gt;learn_about_ethereum</title>
<path fill="none" stroke="#000000" d="M409.8193,-87.6158C409.8193,-79.2763 409.8193,-69.8419 409.8193,-60.889"/>
<polygon fill="#000000" stroke="#000000" points="413.3194,-60.6948 409.8193,-50.6948 406.3194,-60.6949 413.3194,-60.6948"/>
</g>
</g>
</svg>
